<svg width="231" height="48" viewBox="0 0 231 48" fill="none" xmlns="http://www.w3.org/2000/svg">
<g clip-path="url(#clip0_1493_855)">
<path d="M0.425781 12.6316C0.425781 5.65535 6.08113 0 13.0574 0H35.7942C42.7704 0 48.4258 5.65535 48.4258 12.6316V35.3684C48.4258 42.3446 42.7704 48 35.7942 48H13.0574C6.08113 48 0.425781 42.3446 0.425781 35.3684V12.6316Z" fill="#FF5D19"/>
<g filter="url(#filter0_d_1493_855)">
<path d="M13.0615 12.6327C13.0615 11.2374 14.1926 10.1064 15.5878 10.1064C16.9831 10.1064 18.1142 11.2374 18.1142 12.6327V35.3695C18.1142 36.7648 16.9831 37.8958 15.5878 37.8958C14.1926 37.8958 13.0615 36.7648 13.0615 35.3695V12.6327Z" fill="white"/>
</g>
<g filter="url(#filter1_d_1493_855)">
<path d="M22.5391 22.7353C22.5391 21.3401 23.6701 20.209 25.0654 20.209C26.4606 20.209 27.5917 21.3401 27.5917 22.7353V35.3669C27.5917 36.7621 26.4606 37.8932 25.0654 37.8932C23.6701 37.8932 22.5391 36.7621 22.5391 35.3669V22.7353Z" fill="white" fill-opacity="0.9"/>
</g>
<g filter="url(#filter2_d_1493_855)">
<path d="M32.0078 16.4189C32.0078 15.0236 33.1389 13.8926 34.5341 13.8926C35.9294 13.8926 37.0604 15.0236 37.0604 16.4189V35.3663C37.0604 36.7615 35.9294 37.8926 34.5341 37.8926C33.1389 37.8926 32.0078 36.7615 32.0078 35.3663V16.4189Z" fill="white" fill-opacity="0.7"/>
</g>
<path d="M71.244 37.0365L73.348 31.0088H83.086L85.19 37.0365H90.005L80.589 10.9639H75.916L66.5 37.0365H71.244ZM77.664 18.7393C77.914 18.026 78.128 17.2413 78.235 16.7419C78.306 17.277 78.556 18.0616 78.77 18.7393L81.766 27.1567H74.704L77.664 18.7393Z" fill="white"/>
<path d="M99.0724 37.5C101.747 37.5 104.029 36.323 105.099 34.29L105.385 37.0363H109.379V10.5H105.064V21.6638C103.958 19.9161 101.782 18.8818 99.3214 18.8818C94.0074 18.8818 90.7974 22.8052 90.7974 28.2979C90.7974 33.755 93.9714 37.5 99.0724 37.5ZM100.035 33.5053C97.0034 33.5053 95.1484 31.2939 95.1484 28.1552C95.1484 25.0165 97.0034 22.7695 100.035 22.7695C103.066 22.7695 105.028 24.9808 105.028 28.1552C105.028 31.3296 103.066 33.5053 100.035 33.5053Z" fill="white"/>
<path d="M118.266 37.0363V27.0495C118.266 24.1962 119.942 22.8408 122.011 22.8408C124.079 22.8408 125.399 24.1605 125.399 26.6215V37.0363H129.75V27.0495C129.75 24.1605 131.355 22.8052 133.46 22.8052C135.528 22.8052 136.884 24.1248 136.884 26.6572V37.0363H141.199V25.5159C141.199 21.4498 138.845 18.8818 134.565 18.8818C131.89 18.8818 129.822 20.2015 128.93 22.2345C128.003 20.2015 126.148 18.8818 123.473 18.8818C120.941 18.8818 119.157 20.0231 118.266 21.4855L117.909 19.4168H113.914V37.0363H118.266Z" fill="white"/>
<path d="M147.647 15.8856C149.074 15.8856 150.251 14.7086 150.251 13.2463C150.251 11.7839 149.074 10.6426 147.647 10.6426C146.149 10.6426 144.972 11.7839 144.972 13.2463C144.972 14.7086 146.149 15.8856 147.647 15.8856ZM145.471 37.0362H149.823V19.4167H145.471V37.0362Z" fill="white"/>
<path d="M158.67 37.0363V27.5489C158.67 24.6955 160.31 22.8408 162.985 22.8408C165.232 22.8408 166.695 24.2675 166.695 27.2279V37.0363H171.046V26.1935C171.046 21.6281 168.763 18.8818 164.341 18.8818C161.951 18.8818 159.811 19.9161 158.705 21.6995L158.349 19.4168H154.318V37.0363H158.67Z" fill="white"/>
</g>
<defs>
<filter id="filter0_d_1493_855" x="12.0615" y="9.60645" width="7.05273" height="29.7891" filterUnits="userSpaceOnUse" color-interpolation-filters="sRGB">
<feFlood flood-opacity="0" result="BackgroundImageFix"/>
<feColorMatrix in="SourceAlpha" type="matrix" values="0 0 0 0 0 0 0 0 0 0 0 0 0 0 0 0 0 0 127 0" result="hardAlpha"/>
<feOffset dy="0.5"/>
<feGaussianBlur stdDeviation="0.5"/>
<feComposite in2="hardAlpha" operator="out"/>
<feColorMatrix type="matrix" values="0 0 0 0 0 0 0 0 0 0 0 0 0 0 0 0 0 0 0.12 0"/>
<feBlend mode="normal" in2="BackgroundImageFix" result="effect1_dropShadow_1493_855"/>
<feBlend mode="normal" in="SourceGraphic" in2="effect1_dropShadow_1493_855" result="shape"/>
</filter>
<filter id="filter1_d_1493_855" x="21.5391" y="19.709" width="7.05273" height="19.6846" filterUnits="userSpaceOnUse" color-interpolation-filters="sRGB">
<feFlood flood-opacity="0" result="BackgroundImageFix"/>
<feColorMatrix in="SourceAlpha" type="matrix" values="0 0 0 0 0 0 0 0 0 0 0 0 0 0 0 0 0 0 127 0" result="hardAlpha"/>
<feOffset dy="0.5"/>
<feGaussianBlur stdDeviation="0.5"/>
<feComposite in2="hardAlpha" operator="out"/>
<feColorMatrix type="matrix" values="0 0 0 0 0 0 0 0 0 0 0 0 0 0 0 0 0 0 0.12 0"/>
<feBlend mode="normal" in2="BackgroundImageFix" result="effect1_dropShadow_1493_855"/>
<feBlend mode="normal" in="SourceGraphic" in2="effect1_dropShadow_1493_855" result="shape"/>
</filter>
<filter id="filter2_d_1493_855" x="31.0078" y="13.3926" width="7.05273" height="26" filterUnits="userSpaceOnUse" color-interpolation-filters="sRGB">
<feFlood flood-opacity="0" result="BackgroundImageFix"/>
<feColorMatrix in="SourceAlpha" type="matrix" values="0 0 0 0 0 0 0 0 0 0 0 0 0 0 0 0 0 0 127 0" result="hardAlpha"/>
<feOffset dy="0.5"/>
<feGaussianBlur stdDeviation="0.5"/>
<feComposite in2="hardAlpha" operator="out"/>
<feColorMatrix type="matrix" values="0 0 0 0 0 0 0 0 0 0 0 0 0 0 0 0 0 0 0.12 0"/>
<feBlend mode="normal" in2="BackgroundImageFix" result="effect1_dropShadow_1493_855"/>
<feBlend mode="normal" in="SourceGraphic" in2="effect1_dropShadow_1493_855" result="shape"/>
</filter>
<clipPath id="clip0_1493_855">
<rect width="231" height="48" fill="white"/>
</clipPath>
</defs>
</svg>
