<svg width="154" height="32" viewBox="0 0 154 32" fill="none" xmlns="http://www.w3.org/2000/svg">
<g clip-path="url(#clip0_1493_897)">
<path d="M0 8.42105C0 3.77023 3.77023 0 8.42105 0H23.5789C28.2298 0 32 3.77023 32 8.42105V23.5789C32 28.2298 28.2298 32 23.5789 32H8.42105C3.77023 32 0 28.2298 0 23.5789V8.42105Z" fill="#FF5D19"/>
<g filter="url(#filter0_d_1493_897)">
<path d="M8.42383 8.42153C8.42383 7.49136 9.17787 6.7373 10.108 6.7373C11.0382 6.7373 11.7922 7.49136 11.7922 8.42153V23.5794C11.7922 24.5096 11.0382 25.2636 10.108 25.2636C9.17787 25.2636 8.42383 24.5096 8.42383 23.5794V8.42153Z" fill="white"/>
</g>
<g filter="url(#filter1_d_1493_897)">
<path d="M14.7422 15.1569C14.7422 14.2267 15.4962 13.4727 16.4264 13.4727C17.3566 13.4727 18.1106 14.2267 18.1106 15.1569V23.5779C18.1106 24.5081 17.3566 25.2621 16.4264 25.2621C15.4962 25.2621 14.7422 24.5081 14.7422 23.5779V15.1569Z" fill="white" fill-opacity="0.9"/>
</g>
<g filter="url(#filter2_d_1493_897)">
<path d="M21.0547 10.9459C21.0547 10.0158 21.8087 9.26172 22.7389 9.26172C23.6691 9.26172 24.4231 10.0158 24.4231 10.9459V23.5775C24.4231 24.5077 23.6691 25.2617 22.7389 25.2617C21.8087 25.2617 21.0547 24.5077 21.0547 23.5775V10.9459Z" fill="white" fill-opacity="0.7"/>
</g>
<path d="M46.6624 24.6914L48.0653 20.6728H54.5568L55.9597 24.6914H59.1697L52.8923 7.30957H49.7774L43.5 24.6914H46.6624ZM50.9425 12.4931C51.1089 12.0176 51.2516 11.4945 51.3229 11.1616C51.3705 11.5182 51.5369 12.0414 51.6796 12.4931L53.677 18.1049H48.9689L50.9425 12.4931Z" fill="#101828"/>
<path d="M65.2147 25C66.9977 25 68.5197 24.2153 69.2327 22.86L69.4227 24.6909H72.0857V7H69.2087V14.4425C68.4717 13.2774 67.0217 12.5878 65.3807 12.5878C61.8378 12.5878 59.6978 15.2034 59.6978 18.8653C59.6978 22.5033 61.814 25 65.2147 25ZM65.8567 22.3369C63.8347 22.3369 62.5987 20.8626 62.5987 18.7701C62.5987 16.6777 63.8347 15.1797 65.8567 15.1797C67.8777 15.1797 69.1847 16.6539 69.1847 18.7701C69.1847 20.8864 67.8777 22.3369 65.8567 22.3369Z" fill="#101828"/>
<path d="M78.0109 24.691V18.0331C78.0109 16.1309 79.1279 15.2273 80.5069 15.2273C81.8859 15.2273 82.7659 16.1071 82.7659 17.7478V24.691H85.6669V18.0331C85.6669 16.1071 86.7369 15.2035 88.1399 15.2035C89.5189 15.2035 90.4229 16.0833 90.4229 17.7716V24.691H93.2999V17.0107C93.2999 14.3 91.7299 12.5879 88.8769 12.5879C87.0939 12.5879 85.7149 13.4677 85.1199 14.8231C84.5019 13.4677 83.2649 12.5879 81.4819 12.5879C79.7939 12.5879 78.6049 13.3488 78.0109 14.3237L77.7729 12.9446H75.1099V24.691H78.0109Z" fill="#101828"/>
<path d="M97.5975 10.5901C98.5485 10.5901 99.3335 9.80543 99.3335 8.83053C99.3335 7.85563 98.5485 7.09473 97.5975 7.09473C96.5985 7.09473 95.8145 7.85563 95.8145 8.83053C95.8145 9.80543 96.5985 10.5901 97.5975 10.5901ZM96.1474 24.6905H99.0484V12.9441H96.1474V24.6905Z" fill="#101828"/>
<path d="M104.947 24.691V18.366C104.947 16.4638 106.04 15.2273 107.824 15.2273C109.322 15.2273 110.297 16.1784 110.297 18.152V24.691H113.198V17.4625C113.198 14.4189 111.676 12.5879 108.727 12.5879C107.134 12.5879 105.707 13.2775 104.97 14.4664L104.733 12.9446H102.046V24.691H104.947Z" fill="#101828"/>
</g>
<defs>
<filter id="filter0_d_1493_897" x="7.42383" y="6.2373" width="5.36816" height="20.5264" filterUnits="userSpaceOnUse" color-interpolation-filters="sRGB">
<feFlood flood-opacity="0" result="BackgroundImageFix"/>
<feColorMatrix in="SourceAlpha" type="matrix" values="0 0 0 0 0 0 0 0 0 0 0 0 0 0 0 0 0 0 127 0" result="hardAlpha"/>
<feOffset dy="0.5"/>
<feGaussianBlur stdDeviation="0.5"/>
<feComposite in2="hardAlpha" operator="out"/>
<feColorMatrix type="matrix" values="0 0 0 0 0 0 0 0 0 0 0 0 0 0 0 0 0 0 0.12 0"/>
<feBlend mode="normal" in2="BackgroundImageFix" result="effect1_dropShadow_1493_897"/>
<feBlend mode="normal" in="SourceGraphic" in2="effect1_dropShadow_1493_897" result="shape"/>
</filter>
<filter id="filter1_d_1493_897" x="13.7422" y="12.9727" width="5.36816" height="13.7891" filterUnits="userSpaceOnUse" color-interpolation-filters="sRGB">
<feFlood flood-opacity="0" result="BackgroundImageFix"/>
<feColorMatrix in="SourceAlpha" type="matrix" values="0 0 0 0 0 0 0 0 0 0 0 0 0 0 0 0 0 0 127 0" result="hardAlpha"/>
<feOffset dy="0.5"/>
<feGaussianBlur stdDeviation="0.5"/>
<feComposite in2="hardAlpha" operator="out"/>
<feColorMatrix type="matrix" values="0 0 0 0 0 0 0 0 0 0 0 0 0 0 0 0 0 0 0.12 0"/>
<feBlend mode="normal" in2="BackgroundImageFix" result="effect1_dropShadow_1493_897"/>
<feBlend mode="normal" in="SourceGraphic" in2="effect1_dropShadow_1493_897" result="shape"/>
</filter>
<filter id="filter2_d_1493_897" x="20.0547" y="8.76172" width="5.36816" height="18" filterUnits="userSpaceOnUse" color-interpolation-filters="sRGB">
<feFlood flood-opacity="0" result="BackgroundImageFix"/>
<feColorMatrix in="SourceAlpha" type="matrix" values="0 0 0 0 0 0 0 0 0 0 0 0 0 0 0 0 0 0 127 0" result="hardAlpha"/>
<feOffset dy="0.5"/>
<feGaussianBlur stdDeviation="0.5"/>
<feComposite in2="hardAlpha" operator="out"/>
<feColorMatrix type="matrix" values="0 0 0 0 0 0 0 0 0 0 0 0 0 0 0 0 0 0 0.12 0"/>
<feBlend mode="normal" in2="BackgroundImageFix" result="effect1_dropShadow_1493_897"/>
<feBlend mode="normal" in="SourceGraphic" in2="effect1_dropShadow_1493_897" result="shape"/>
</filter>
<clipPath id="clip0_1493_897">
<rect width="154" height="32" fill="white"/>
</clipPath>
</defs>
</svg>
